# xmcd
# 
# Track frame offsets:
#     150
#     20122
#     38202
# 
# Disc length: 741
# 
# Revision: 7
# Processed by: cddbd v1.5.2PL0 Copyright (c) Steve Scherf et al.
# Submitted via: fre:ac v1.0.17
# 
DISCID=2002e303
DTITLE=サンボマスター - 全ての夜と全ての朝にタンバリンを鳴らすのだ
DYEAR=2005
DGENRE=J-POP
TTITLE0=全ての夜と全ての朝にタンバリンを鳴らすのだ
TTITLE1=あの鐘を鳴らすのはあなた
TTITLE2=離れない二人
EXTD=YEAR: 2005
EXTT0=
EXTT1=
EXTT2=
PLAYORDER=
